<svg xmlns="http://www.w3.org/2000/svg" viewBox="0 0 512 512" fill="none">
  <defs>
    <linearGradient id="bg" x1="0" y1="0" x2="1" y2="1">
      <stop offset="0%" stop-color="#2d1f4e"/>
      <stop offset="100%" stop-color="#1a1233"/>
    </linearGradient>
    <linearGradient id="accent" x1="0" y1="0" x2="0" y2="1">
      <stop offset="0%" stop-color="#a78bfa"/>
      <stop offset="100%" stop-color="#7c3aed"/>
    </linearGradient>
  </defs>

  <rect width="512" height="512" rx="160" fill="url(#bg)"/>

  <g opacity="0.7">
    <path d="M148 72 h148 l56 56 v256 a16 16 0 0 1 -16 16 H148 a16 16 0 0 1 -16-16 V88 a16 16 0 0 1 16-16Z" fill="#5a3d9e"/>
    <path d="M296 72 v40 a16 16 0 0 0 16 16 h40Z" fill="#7c5ecf"/>
    <rect x="168" y="152" width="148" height="8" rx="4" fill="#7c5ecf"/>
    <rect x="168" y="176" width="116" height="8" rx="4" fill="#7c5ecf"/>
    <rect x="168" y="200" width="156" height="8" rx="4" fill="#7c5ecf"/>
    <rect x="168" y="232" width="96" height="8" rx="4" fill="#7c5ecf"/>
    <rect x="168" y="256" width="128" height="8" rx="4" fill="#7c5ecf"/>
  </g>

  <text x="268" y="330" font-family="system-ui, sans-serif" font-weight="800" font-size="240" fill="url(#accent)" text-anchor="middle" dominant-baseline="central" letter-spacing="-8">IQ</text>
</svg>
